<svg width="19" height="19" viewBox="0 0 19 19" fill="none" xmlns="http://www.w3.org/2000/svg">
<path d="M18.7031 9.5C18.7031 14.5839 14.5824 18.7031 9.5 18.7031C4.41761 18.7031 0.296875 14.5839 0.296875 9.5C0.296875 4.4191 4.41761 0.296875 9.5 0.296875C14.5824 0.296875 18.7031 4.4191 18.7031 9.5ZM9.5 11.3555C8.55724 11.3555 7.79297 12.1197 7.79297 13.0625C7.79297 14.0053 8.55724 14.7695 9.5 14.7695C10.4428 14.7695 11.207 14.0053 11.207 13.0625C11.207 12.1197 10.4428 11.3555 9.5 11.3555ZM7.87932 5.21958L8.1546 10.2665C8.16748 10.5026 8.36275 10.6875 8.59924 10.6875H10.4008C10.6373 10.6875 10.8325 10.5026 10.8454 10.2665L11.1207 5.21958C11.1346 4.96449 10.9315 4.75 10.676 4.75H8.32393C8.06847 4.75 7.86541 4.96449 7.87932 5.21958Z" fill="white"/>
</svg>
