<svg width="469" height="305" viewBox="0 0 469 305" fill="none" xmlns="http://www.w3.org/2000/svg">
<path fill-rule="evenodd" clip-rule="evenodd" d="M250.115 99.1013C245.707 97.8185 243.15 93.1203 244.404 88.6076C245.657 84.0948 250.246 81.4778 254.655 82.7605C263.145 85.259 271.136 89.5297 278.121 95.3715C284.885 101.023 290.693 108.122 295.091 116.503C295.514 117.317 295.931 118.157 296.344 119.028C312.317 111.645 329.755 110.867 345.527 115.73C362.793 121.052 378.072 133.112 387.271 150.648C389.103 154.135 390.628 157.721 391.851 161.389C392.198 162.435 392.525 163.491 392.822 164.557L392.958 164.542C395.645 164.253 398.428 164.098 401.287 164.124L401.946 164.129C421.875 164.475 438.643 173.567 450.379 186.92C462.029 200.18 468.722 217.726 468.598 235.108L468.587 235.731C468.29 253.864 460.499 271.756 447.898 284.758C435.951 297.081 419.65 305.117 401.221 305C382.596 304.875 365.118 297.895 351.717 286.216C338.521 274.708 329.262 258.655 326.69 240.099H326.675L321.512 210.241L312.795 269.628C312.755 269.917 312.7 270.2 312.629 270.478C310.853 280.503 304.945 288.859 296.898 294.799C288.513 300.986 277.729 304.571 267.06 304.571C254.75 304.571 243.271 299.77 234.635 291.79C226.055 283.862 220.263 272.817 219.201 260.221L210.283 136.61L202.347 274.63C201.929 282.796 198.527 290.111 193.268 295.412C187.843 300.877 180.481 304.226 172.398 304.226C165.177 304.226 158.287 301.578 152.943 297.024C147.669 292.527 143.92 286.206 142.838 278.757L142.772 278.2L135.259 221.739L128.53 255.714L128.55 255.719C125.843 270.071 117.589 282.023 106.448 290.471C94.9432 299.203 80.2986 304.211 65.5937 304.211C47.4867 304.211 31.0858 296.694 19.2141 284.542C7.34242 272.389 0 255.606 0 237.06C0 218.525 7.34242 201.736 19.2141 189.583C31.0858 177.436 47.4867 169.92 65.5937 169.92C71.6276 169.92 77.6314 170.785 83.4289 172.47L84.0982 172.666C83.2779 162.27 84.7927 151.879 88.4261 142.276C94.0072 127.517 104.57 114.649 119.235 106.586C127.584 101.996 136.451 99.3949 145.309 98.6222C154.463 97.8237 163.662 98.9982 172.328 101.971C176.666 103.454 179.001 108.256 177.552 112.696C176.102 117.132 171.407 119.527 167.074 118.044C160.597 115.828 153.652 114.953 146.672 115.561C140.004 116.143 133.341 118.095 127.086 121.531C116.019 127.615 108.063 137.295 103.871 148.386C99.6134 159.637 99.2209 172.362 103.353 184.287L103.337 184.293C104.138 186.626 103.941 189.295 102.578 191.561C100.177 195.544 95.0741 196.775 91.184 194.318C87.3995 191.912 83.2729 190.062 78.9499 188.81C74.6622 187.564 70.1682 186.92 65.5937 186.92C52.0663 186.92 39.8222 192.535 30.96 201.607C22.0977 210.679 16.6173 223.218 16.6173 237.06C16.6173 250.907 22.0977 263.446 30.96 272.518C39.8222 281.59 52.0663 287.205 65.5937 287.205C76.8111 287.205 87.9178 283.434 96.5889 276.856C104.53 270.828 110.388 262.452 112.26 252.535H112.28L128.676 169.791C129.199 166.144 132.023 163.135 135.767 162.62C140.301 161.997 144.468 165.252 145.077 169.894L159.188 275.908L159.254 276.299C159.712 279.437 161.297 282.105 163.521 284.006C165.907 286.041 169.052 287.226 172.398 287.226C175.987 287.226 179.253 285.742 181.648 283.321C184.044 280.91 185.599 277.582 185.805 273.852L185.82 273.353L201.049 8.31023C201.134 3.97262 204.445 0.330467 208.758 0.0213735C213.328 -0.308326 217.293 3.21534 217.616 7.89295L235.748 258.763C236.437 266.898 240.181 274.038 245.732 279.169C251.409 284.413 258.958 287.566 267.06 287.566C274.347 287.566 281.639 285.176 287.23 281.049C291.915 277.592 295.333 272.951 296.324 267.604L296.379 267.104L312.594 156.541C313.047 152.951 315.729 149.921 319.403 149.267C323.917 148.464 328.22 151.554 329.005 156.175L343.031 237.178H343.01L343.061 237.508C344.993 251.912 352.17 264.384 362.426 273.332C372.934 282.492 386.652 287.963 401.287 288.06C414.96 288.148 427.149 282.09 436.152 272.801C445.835 262.813 451.813 249.187 452.045 235.468L452.05 235.01C452.14 221.832 446.992 208.459 438.054 198.279C429.187 188.187 416.586 181.325 401.689 181.068L401.161 181.057C399.057 181.047 396.868 181.176 394.644 181.413C392.425 181.645 390.195 181.995 387.971 182.423L387.78 182.453C383.26 183.206 379.003 180.068 378.268 175.447C377.8 172.557 377.096 169.683 376.15 166.839C375.218 164.062 374.066 161.342 372.672 158.684C365.637 145.28 353.971 136.064 340.791 131.999C327.581 127.929 312.866 129.006 299.776 136.203L298.131 137.161L298.121 137.135L296.867 137.913C296.178 138.408 295.403 138.809 294.558 139.077C290.189 140.468 285.539 137.97 284.18 133.498C283.672 131.85 283.134 130.325 282.555 128.934C281.991 127.558 281.297 126.095 280.487 124.54C277.13 118.141 272.747 112.758 267.679 108.523C262.465 104.165 256.487 100.982 250.115 99.1013Z" fill="#EDF1F2"/>
</svg>
