<?xml version="1.0" encoding="UTF-8"?>
<svg width="68px" height="63px" viewBox="0 0 68 63" version="1.1" xmlns="http://www.w3.org/2000/svg" xmlns:xlink="http://www.w3.org/1999/xlink">
    <!-- Generator: sketchtool 61.2 (101010) - https://sketch.com -->
    <title>7FF3ECF0-D483-43B4-A7D9-8598F686B26B</title>
    <desc>Created with sketchtool.</desc>
    <g id="Asset-Artboard-Page" stroke="none" stroke-width="1" fill="none" fill-rule="evenodd">
        <g id="logo-infineQ" transform="translate(0.378378, 0.000000)">
            <path d="M35.8784051,14.1460032 C35.2504441,13.9629015 34.8862841,13.2922639 35.0647798,12.6480989 C35.2432756,12.0039339 35.8970432,11.630377 36.5250043,11.8134787 C37.734331,12.1701225 38.8726896,12.7797262 39.867678,13.6136111 C40.8311251,14.4202881 41.6583705,15.4335979 42.2848978,16.6300095 C42.3451133,16.7461945 42.4046119,16.8660563 42.4633936,16.9903301 C44.738677,15.9365761 47.2225639,15.8255385 49.4691733,16.5197073 C51.9286873,17.279322 54.1050454,19.0007722 55.4154481,21.5038975 C55.6763816,22.0017282 55.8935873,22.5135306 56.067782,23.0370985 C56.1172447,23.1863742 56.16384,23.3371206 56.2061341,23.4893377 L56.2254891,23.4871316 C56.6082873,23.4459521 57.0047056,23.4238917 57.4118767,23.4275684 L57.5057841,23.4283038 C60.344512,23.4775721 62.7330578,24.7754617 64.4047531,26.6814843 C66.0642619,28.5742706 67.0176731,31.0788667 67,33.5599316 L66.9983181,33.6489087 C66.9560239,36.2373344 65.8463394,38.7911988 64.0513458,40.6472177 C62.3495427,42.4061706 60.027664,43.5533139 57.4025576,43.5365854 C54.749494,43.5187525 52.2598723,42.5223557 50.3508994,40.8553212 C48.4713175,39.2125533 47.1523126,36.9212083 46.786002,34.272484 L46.7838515,34.272484 L46.0483629,30.0104057 L44.8067778,38.4875 C44.801043,38.5286795 44.7931577,38.5691236 44.7831218,38.6088324 C44.5300735,40.0398201 43.6884911,41.2325549 42.5422472,42.0804114 C41.3479743,42.9635646 39.8117637,43.4753669 38.2920407,43.4753669 C36.5386244,43.4753669 34.9034885,42.7900224 33.673373,41.650968 C32.451143,40.5192671 31.6260481,38.9426805 31.4747926,37.1447541 L30.2045336,19.5000736 L29.0740604,39.2015231 C29.0145618,40.36705 28.5299709,41.4112445 27.7808621,42.1679178 C27.0080973,42.9481223 25.959345,43.4260986 24.8080832,43.4260986 C23.7794027,43.4260986 22.7980344,43.0481296 22.0367392,42.3980818 C21.2854799,41.7561228 20.7514263,40.8538505 20.5973035,39.790537 L20.5879844,39.7111194 L19.5177266,31.6517029 L18.5592976,36.5013244 L18.562165,36.5020598 C18.1764994,38.5507399 17.0008646,40.2567478 15.4137577,41.4627189 C13.7750375,42.7091341 11.6890026,43.4238926 9.59436547,43.4238926 C7.01513745,43.4238926 4.67892174,42.3510195 2.98787146,40.6163331 C1.29682118,38.8816466 0.25093633,36.4858821 0.25093633,33.8386285 C0.25093633,31.1928456 1.29682118,28.7963458 2.98787146,27.0616593 C4.67892174,25.3277082 7.01513745,24.2548352 9.59436547,24.2548352 C10.4538692,24.2548352 11.3090718,24.3783737 12.1348836,24.6188326 L12.2302247,24.6467758 C12.1133781,23.1628431 12.32915,21.6796457 12.8467161,20.3089566 C13.6417033,18.202184 15.1463724,16.3652841 17.2352747,15.2144642 C18.4245297,14.5592689 19.6876202,14.1879181 20.9492771,14.0776158 C22.2532281,13.9636369 23.5636307,14.1312963 24.7980473,14.5555922 C25.4159724,14.7673725 25.748591,15.452717 25.5421381,16.0865872 C25.3356851,16.719722 24.6668636,17.0616589 24.0496554,16.8498786 C23.1270688,16.5336789 22.1378151,16.4086697 21.1435435,16.4954408 C20.1937166,16.5785351 19.2446066,16.8572321 18.3535615,17.3477094 C16.7772073,18.2161556 15.6438667,19.5978749 15.0467302,21.1810796 C14.4402747,22.7870801 14.3843604,24.6033902 14.9728946,26.3057214 L14.9707441,26.3064567 C15.0847233,26.6395695 15.0567661,27.0204798 14.8624996,27.3440331 C14.520562,27.9124572 13.7936756,28.0882055 13.2395502,27.7374444 C12.7004786,27.3940367 12.1126612,27.1300467 11.4968866,26.9513571 C10.88613,26.7734028 10.2459826,26.6814843 9.59436547,26.6814843 C7.66747138,26.6814843 5.92337417,27.4830139 4.66100047,28.7779621 C3.39862678,30.0729103 2.61797661,31.8627479 2.61797661,33.8386285 C2.61797661,35.8152445 3.39862678,37.6050821 4.66100047,38.9000303 C5.92337417,40.1949785 7.66747138,40.9965081 9.59436547,40.9965081 C11.1922252,40.9965081 12.7743142,40.4582332 14.0094476,39.5191935 C15.1406376,38.6588361 15.9750516,37.4631599 16.24172,36.0476146 L16.2445874,36.0476146 L18.5800862,24.2364515 C18.6546387,23.7158249 19.0567918,23.2863816 19.5901285,23.2128468 C20.2360108,23.1238696 20.829563,23.5886097 20.9163019,24.2511584 L22.9263507,39.3838895 L22.9356697,39.4397759 C23.0009031,39.887603 23.226711,40.2685134 23.5435589,40.5398569 C23.8833461,40.8303194 24.3313776,40.9994495 24.8080832,40.9994495 C25.3191976,40.9994495 25.7844335,40.7876692 26.1256544,40.4420555 C26.4668752,40.0979126 26.688382,39.6228776 26.7177729,39.0904855 L26.7199234,39.0191567 L28.889113,1.18622619 C28.9012994,0.567062993 29.372987,0.0471718017 29.9873279,0.00305090853 C30.6382281,-0.0440113775 31.2031063,0.458966805 31.2489847,1.12666299 L33.831797,36.9366506 C33.9300055,38.0977654 34.4633423,39.1169581 35.2540284,39.8493649 C36.0626357,40.5979494 37.1379114,41.0479825 38.2920407,41.0479825 C39.3300402,41.0479825 40.3687565,40.7067809 41.1651774,40.117767 C41.8325652,39.6243483 42.3193067,38.9617996 42.4605262,38.1985081 L42.4684116,38.1271793 L44.7781038,22.3451359 C44.8426204,21.8325982 45.2247017,21.4002134 45.7480025,21.3068242 C46.3910174,21.1921099 47.0039246,21.6333188 47.1157532,22.2929261 L49.1136155,33.8555415 L49.1107481,33.8555415 L49.1179166,33.9026038 C49.3931872,35.9586374 50.415416,37.7389155 51.8763573,39.0162153 C53.3731411,40.3236645 55.3272755,41.1046043 57.4118767,41.1185759 C59.3595594,41.1310768 61.0957713,40.2663073 62.3782168,38.9404745 C63.7574371,37.5146343 64.6090555,35.5696382 64.6420306,33.6114059 L64.6427474,33.5459599 C64.6556507,31.6649392 63.9223127,29.7559752 62.6491862,28.3029271 C61.3860957,26.86238 59.5911021,25.8828961 57.4692247,25.8461287 L57.3939554,25.844658 C57.0943119,25.8431873 56.7824819,25.861571 56.465634,25.8953971 C56.149503,25.9284877 55.8319382,25.9784914 55.5150903,26.0395253 L55.48785,26.0439374 C54.8441182,26.1512982 54.2376627,25.7034712 54.1330026,25.0438638 C54.0663355,24.6313335 53.9659764,24.2210092 53.8312085,23.815097 C53.6985912,23.4187443 53.5344324,23.0304804 53.3358648,22.6510407 C52.3337079,20.7376647 50.6720485,19.4221267 48.794617,18.8419369 C46.9128845,18.2610119 44.8168137,18.4146996 42.9522856,19.4419811 L42.7178755,19.5787559 L42.7164418,19.5750791 L42.5379461,19.6861167 C42.4397376,19.7567101 42.3293426,19.8140673 42.2089117,19.8523054 C41.5866855,20.0508494 40.9243156,19.6942055 40.730766,19.0559233 C40.6583641,18.8206118 40.5816611,18.6029488 40.4992233,18.4044048 C40.4189361,18.2080668 40.3200107,17.9992279 40.2045978,17.7771527 C39.7264585,16.8638502 39.1020817,16.0954113 38.3802133,15.4909551 C37.6375562,14.8688505 36.7859378,14.4144053 35.8784051,14.1460032" id="Fill-1" fill="#3C718E"></path>
            <path d="M56.8228578,55.1766163 C56.8228578,54.5856201 56.7759809,54.0510471 56.6850683,53.5642167 C56.5941556,53.0802798 56.4386096,52.6650634 56.2184304,52.3185675 C55.9989615,51.9720716 55.705626,51.7029766 55.338424,51.512006 C54.9726424,51.3239289 54.5145277,51.2284436 53.9669207,51.2284436 C53.4122113,51.2284436 52.9491247,51.3333327 52.5790816,51.5445578 C52.2069078,51.7543361 51.9050492,52.0378985 51.6756367,52.3930749 C51.4476447,52.7489747 51.2857065,53.1634677 51.1919528,53.6387241 C51.0981991,54.1161507 51.0513222,54.6152784 51.0513222,55.1411709 C51.0513222,55.7654423 51.0981991,56.3267802 51.1891118,56.822291 C51.2800245,57.3178019 51.4355704,57.7395286 51.6529086,58.0918115 C51.8695365,58.441201 52.1600309,58.706679 52.5265227,58.892586 C52.8930145,59.0748762 53.3532601,59.167468 53.9079695,59.167468 C54.4619688,59.167468 54.9250553,59.0625788 55.2950984,58.8506304 C55.6672722,58.6415754 55.9691308,58.3551195 56.197833,57.9934327 C56.4265353,57.631746 56.5884735,57.2107426 56.6822272,56.7239122 C56.7759809,56.2399753 56.8228578,55.7234866 56.8228578,55.1766163 L56.8228578,55.1766163 Z M60.3359664,62.0405564 C60.3359664,62.2504433 60.3265613,62.4169054 60.3055807,62.5457325 C60.2853235,62.6745597 60.2585551,62.7729894 60.2223816,62.8417455 C60.1862081,62.9133965 60.1471408,62.9582689 60.1087968,62.9792576 C60.0668356,63.0002463 60.0219804,63.0089313 59.9771253,63.0089313 C59.7825119,63.0089313 59.5321913,62.9553739 59.2182053,62.8511542 C58.9049428,62.7462107 58.5678058,62.5971186 58.2060708,62.3995354 C57.8443358,62.2048472 57.4739192,61.9660103 57.0969914,61.6823011 C56.7215104,61.4014869 56.3720744,61.0758002 56.0486834,60.7081362 C55.780276,60.8311734 55.4547145,60.9353931 55.0727224,61.0280329 C54.6929006,61.1177776 54.2682238,61.16265 53.8001387,61.16265 C52.9182288,61.16265 52.1513506,61.0490216 51.4966103,60.8246597 C50.8396996,60.6002978 50.2927563,60.2507275 49.85361,59.7788438 C49.4173576,59.30696 49.0889022,58.7062492 48.8704143,57.9738161 C48.6533733,57.2421069 48.5419589,56.3692667 48.5419589,55.3618095 C48.5419589,54.4448207 48.6584376,53.6197479 48.8921184,52.8873149 C49.1250757,52.1556057 49.4708944,51.5339061 49.9339152,51.02294 C50.3947655,50.5148689 50.9648599,50.1204262 51.6427512,49.8482969 C52.3242599,49.5732727 53.1128422,49.4357605 54.0121154,49.4357605 C54.8571283,49.4357605 55.6037493,49.5501127 56.2548723,49.7766459 C56.9067187,50.0039027 57.453662,50.353473 57.90149,50.8224618 C58.346424,51.2921742 58.6842845,51.8863714 58.9136245,52.6036057 C59.1444114,53.32084 59.2601666,54.1697965 59.2601666,55.1497513 C59.2601666,55.6578224 59.2276104,56.1362199 59.1588808,56.5813249 C59.093045,57.02643 58.9946531,57.4389663 58.8665989,57.8182103 C58.7378212,58.198178 58.5822752,58.5448534 58.3934495,58.8611312 C58.2089647,59.1752379 57.9940941,59.4531571 57.755349,59.691994 C58.1192544,60.0089956 58.4390281,60.2478325 58.7197345,60.4121233 C59.0004408,60.5764141 59.2370155,60.6987275 59.4272881,60.7826823 C59.6190077,60.8630183 59.7709364,60.9230894 59.8845212,60.9621718 C59.9981059,61.0012542 60.0878162,61.0490216 60.1500346,61.1112639 C60.2158704,61.171335 60.2636194,61.2755547 60.2911113,61.4253705 C60.3207735,61.5715677 60.3359664,61.7778358 60.3359664,62.0405564 L60.3359664,62.0405564 Z M45.0272815,55.8381994 C45.0444463,55.201215 44.9207164,54.6998225 44.6582375,54.3370021 C44.3950434,53.9704566 43.9902394,53.7894189 43.4416798,53.7894189 C43.1634665,53.7894189 42.9210132,53.8445498 42.717896,53.9525764 C42.5112027,54.059858 42.3402696,54.2043901 42.2036661,54.3891529 C42.0677778,54.5739156 41.9647888,54.7892238 41.8939839,55.0380575 C41.8196029,55.2906163 41.7788365,55.5550952 41.766678,55.8381994 L45.0272815,55.8381994 Z M47.0363409,56.6406836 C47.0363409,56.9069712 46.9774168,57.1016761 46.8602785,57.2290932 C46.7431402,57.3557946 46.5819862,57.4209348 46.373267,57.4209348 L41.706902,57.4209348 C41.706902,57.7487835 41.7452382,58.0444199 41.8240403,58.3135708 C41.9007127,58.5791426 42.0235304,58.8067755 42.1910737,58.9936063 C42.3607468,59.1790054 42.5779852,59.3214549 42.8449186,59.4188074 C43.111852,59.5168757 43.4277705,59.5669835 43.7997734,59.5669835 C44.1788757,59.5669835 44.5089928,59.5397821 44.7972241,59.4839476 C45.0811958,59.4281131 45.3303809,59.3686995 45.5383902,59.300696 C45.7471094,59.2326924 45.9196222,59.1739946 46.0573485,59.1174443 C46.1943648,59.0616098 46.3065337,59.0351242 46.3917252,59.0351242 C46.4442599,59.0351242 46.4875656,59.0437141 46.5202224,59.0644731 C46.5550089,59.0852321 46.5848259,59.1203076 46.6082536,59.1739946 C46.6288416,59.2241025 46.6458799,59.2978327 46.6551089,59.3923218 C46.664338,59.4868109 46.6664678,59.6077857 46.6664678,59.7502352 C46.6664678,59.8769365 46.664338,59.986458 46.6586586,60.0752206 C46.6522692,60.1639831 46.6430401,60.2405765 46.6323912,60.3028535 C46.6196125,60.3679937 46.6054139,60.4209649 46.5819862,60.4624828 C46.5585586,60.5068641 46.5287415,60.5476662 46.4904053,60.5891842 C46.453489,60.6278388 46.353389,60.6836733 46.1865556,60.755256 C46.0190123,60.8261229 45.8074534,60.8934106 45.5497491,60.9621299 C45.2920448,61.0294177 44.998844,61.0888313 44.667307,61.1389392 C44.33648,61.189047 43.9815153,61.2162485 43.603833,61.2162485 C42.920881,61.2162485 42.3252504,61.1303492 41.8126814,60.9556875 C41.3029522,60.7846049 40.8748649,60.5211806 40.5291293,60.1697097 C40.1862335,59.8175229 39.930659,59.3715628 39.7609859,58.8368402 C39.5941525,58.2985385 39.5082511,57.6693267 39.5082511,56.9477733 C39.5082511,56.2627271 39.5962823,55.6442527 39.7751845,55.0916344 C39.9512469,54.5418795 40.2096612,54.0751604 40.5490074,53.6907614 C40.8862238,53.3070783 41.2965629,53.0143051 41.7807346,52.8131578 C42.2670362,52.6091471 42.8122618,52.5089314 43.4185414,52.5089314 C44.0610274,52.5089314 44.6090928,52.6034205 45.0634475,52.7952621 C45.520642,52.9849562 45.8933548,53.2505279 46.1865556,53.5876824 C46.4762068,53.9248368 46.6934451,54.3264156 46.8311714,54.7874081 C46.9688977,55.2484005 47.0363409,55.7509109 47.0363409,56.2949393 L47.0363409,56.6406836 Z M37.7516968,60.6086562 C37.7516968,60.666147 37.7327049,60.7170883 37.6969125,60.7622077 C37.6640419,60.8073271 37.6041444,60.842986 37.5216028,60.8735507 C37.4376002,60.9004768 37.3229185,60.924492 37.178288,60.9397744 C37.0329271,60.954329 36.855426,60.9601509 36.6443239,60.9601509 C36.4237259,60.9601509 36.243303,60.954329 36.0986726,60.9397744 C35.9540421,60.924492 35.8393603,60.9004768 35.7546273,60.8735507 C35.6728161,60.842986 35.6129186,60.8073271 35.5800481,60.7622077 C35.5435252,60.7170883 35.5252638,60.666147 35.5252638,60.6086562 L35.5252638,56.1287361 C35.5252638,55.7474044 35.4982369,55.4468509 35.4412612,55.2299867 C35.386477,55.0109393 35.3053962,54.8246398 35.2002104,54.671816 C35.0942942,54.5153536 34.9555073,54.39455 34.7896936,54.3079499 C34.620958,54.2235329 34.4273869,54.1813244 34.2045975,54.1813244 C33.9211802,54.1813244 33.6370324,54.2839347 33.3477715,54.4913384 C33.0614323,54.6951034 32.7597536,54.9963846 32.4485789,55.3864491 L32.4485789,60.6086562 C32.4485789,60.666147 32.4310479,60.7170883 32.3945251,60.7622077 C32.3616545,60.8073271 32.3010266,60.842986 32.2141022,60.8735507 C32.1293692,60.9004768 32.0146874,60.924492 31.8759006,60.9397744 C31.734192,60.954329 31.5530386,60.9601509 31.3360929,60.9601509 C31.1191472,60.9601509 30.9379938,60.954329 30.7962852,60.9397744 C30.6574983,60.924492 30.5428166,60.9004768 30.4580836,60.8735507 C30.3711592,60.842986 30.3105313,60.8073271 30.2776607,60.7622077 C30.2411378,60.7170883 30.2236069,60.666147 30.2236069,60.6086562 L30.2236069,52.7484195 C30.2236069,52.6916564 30.238216,52.6399874 30.2688952,52.594868 C30.2959221,52.5504763 30.3499759,52.5140897 30.425213,52.4842527 C30.5033719,52.4565989 30.6005227,52.4333114 30.7210481,52.4180291 C30.8415735,52.4027467 30.9949695,52.3969248 31.1761228,52.3969248 C31.3660416,52.3969248 31.520168,52.4027467 31.6436153,52.4180291 C31.7670625,52.4333114 31.8642133,52.4565989 31.9328763,52.4842527 C32.0000783,52.5140897 32.0482885,52.5504763 32.0782372,52.594868 C32.1081859,52.6399874 32.1235255,52.6916564 32.1235255,52.7484195 L32.1235255,53.6559017 C32.557417,53.1872421 33.0008044,52.8386583 33.4529573,52.6043285 C33.9029188,52.3699987 34.3733331,52.2528338 34.8620088,52.2528338 C35.3988947,52.2528338 35.8510476,52.339434 36.219198,52.5170006 C36.5873483,52.6916564 36.8824529,52.9318081 37.1118164,53.2352724 C37.3375276,53.5358259 37.50115,53.8902315 37.6004922,54.2963061 C37.6998343,54.701653 37.7516968,55.188506 37.7516968,55.7561372 L37.7516968,60.6086562 Z M27.7142426,60.6117956 L27.7142426,53.1282895 C27.7142426,52.9198534 27.6575598,52.7676733 27.5484993,52.6695858 C27.4387212,52.5743831 27.2758479,52.5267818 27.0562918,52.5267818 L22.6658873,52.5267818 L22.6658873,51.785355 C22.6658873,51.3028506 22.7340502,50.9573803 22.8732459,50.7489442 C23.0095716,50.5405081 23.2319977,50.4366506 23.5340667,50.4366506 C23.6553248,50.4366506 23.7564928,50.4424205 23.8361357,50.4568451 C23.9157786,50.471991 23.987529,50.4900218 24.0463643,50.5051677 C24.1051995,50.5224773 24.1590123,50.5376231 24.2006275,50.5491629 C24.2451127,50.5614238 24.2838579,50.5671937 24.3190156,50.5671937 C24.4108561,50.5671937 24.4704089,50.5109376 24.5026965,50.3977041 C24.5357017,50.2815857 24.5500518,50.0846893 24.5500518,49.8055724 C24.5500518,49.6533924 24.5471818,49.527898 24.5414417,49.4240405 C24.5357017,49.323068 24.5263742,49.239405 24.5113066,49.1766578 C24.4969565,49.1110257 24.4790189,49.0576545 24.4582113,49.018708 C24.4374037,48.9775977 24.4137261,48.9415361 24.3814384,48.9090807 C24.3484333,48.875904 24.289598,48.8463335 24.2034975,48.8160417 C24.1181146,48.7864712 24.0169466,48.7597856 23.9014285,48.7359849 C23.7859105,48.7150692 23.6610648,48.6970384 23.5340667,48.6854987 C23.403481,48.6732377 23.2728954,48.6674679 23.1458972,48.6674679 C22.689565,48.6674679 22.2956555,48.7331 21.9612988,48.863643 C21.6262246,48.9949073 21.3478332,49.1910825 21.1289947,49.456496 C20.9094386,49.7219094 20.7465652,50.0522338 20.6396572,50.4481903 C20.5327492,50.8441469 20.4796539,51.3057355 20.4796539,51.8358412 L20.4796539,52.5267818 L19.5196341,52.5267818 C19.4607988,52.5267818 19.4105735,52.5419276 19.3682408,52.5714982 C19.3244731,52.6010687 19.291468,52.64867 19.2649203,52.7143022 C19.2383727,52.7828192 19.2175651,52.875137 19.2024975,52.9919766 C19.1881474,53.1073737 19.1824074,53.2501777 19.1824074,53.4203886 C19.1824074,53.7420582 19.208955,53.97141 19.2649203,54.1084441 C19.3187331,54.2454783 19.401246,54.3139953 19.5110241,54.3139953 L20.4796539,54.3139953 L20.4796539,60.6117956 C20.4796539,60.6687729 20.494004,60.7192592 20.5270091,60.7639756 C20.5600143,60.808692 20.6188496,60.8440324 20.70208,60.8743241 C20.7845929,60.9010097 20.900111,60.9248104 21.0421767,60.9399563 C21.1849599,60.9543809 21.3593133,60.9601508 21.5695419,60.9601508 C21.7833579,60.9601508 21.9612988,60.9543809 22.102647,60.9399563 C22.2454302,60.9248104 22.3580783,60.9010097 22.4405912,60.8743241 C22.5209516,60.8440324 22.5805044,60.808692 22.6127921,60.7639756 C22.6479498,60.7192592 22.6658873,60.6687729 22.6658873,60.6117956 L22.6658873,54.3139953 L25.5280092,54.3139953 L25.5280092,60.6117956 C25.5280092,60.6687729 25.5459468,60.7192592 25.5811044,60.7639756 C25.6141096,60.808692 25.6729449,60.8440324 25.7525878,60.8743241 C25.8358182,60.9010097 25.9484663,60.9248104 26.090532,60.9399563 C26.2325977,60.9543809 26.4105386,60.9601508 26.6272247,60.9601508 C26.8345832,60.9601508 27.0089366,60.9543809 27.1510023,60.9399563 C27.293068,60.9248104 27.4064336,60.9010097 27.4889465,60.8743241 C27.5693069,60.8440324 27.6281422,60.808692 27.6611473,60.7639756 C27.696305,60.7192592 27.7142426,60.6687729 27.7142426,60.6117956 L27.7142426,60.6117956 Z M27.9651799,50.332102 C27.9651799,50.5462912 27.9469644,50.7280275 27.907619,50.8765898 C27.8690022,51.0258732 27.8026979,51.1448672 27.7094347,51.234293 C27.613257,51.3266035 27.4864773,51.3893458 27.3247239,51.4282893 C27.1615133,51.4665116 26.9604145,51.484541 26.7192417,51.484541 C26.4787975,51.484541 26.2740556,51.4665116 26.1086591,51.4282893 C25.9461771,51.3893458 25.8142971,51.3266035 25.7173908,51.234293 C25.6182986,51.1448672 25.5519943,51.0258732 25.5133775,50.8765898 C25.4740321,50.7280275 25.4558166,50.5462912 25.4558166,50.332102 C25.4558166,50.1236822 25.4740321,49.9448306 25.5133775,49.799153 C25.5519943,49.6534755 25.6182986,49.5344815 25.7173908,49.442171 C25.8142971,49.3498605 25.9461771,49.2806276 26.1086591,49.2424053 C26.2740556,49.2005771 26.4787975,49.179663 26.7192417,49.179663 C26.9604145,49.179663 27.1615133,49.2005771 27.3247239,49.2424053 C27.4864773,49.2806276 27.613257,49.3498605 27.7094347,49.442171 C27.8026979,49.5344815 27.8690022,49.6534755 27.907619,49.799153 C27.9469644,49.9448306 27.9651799,50.1236822 27.9651799,50.332102 L27.9651799,50.332102 Z M18.4295989,60.6086562 C18.4295989,60.666147 18.4113375,60.7170883 18.3748146,60.7622077 C18.3419441,60.8073271 18.2813161,60.842986 18.2002354,60.8735507 C18.1155024,60.9004768 18.0008206,60.924492 17.8561901,60.9397744 C17.7115597,60.954329 17.5333282,60.9601509 17.3222261,60.9601509 C17.1023585,60.9601509 16.9212052,60.954329 16.7765747,60.9397744 C16.6319442,60.924492 16.516532,60.9004768 16.4325294,60.8735507 C16.3514487,60.842986 16.2908208,60.8073271 16.2579502,60.7622077 C16.2214274,60.7170883 16.2038964,60.666147 16.2038964,60.6086562 L16.2038964,56.1287361 C16.2038964,55.7474044 16.176139,55.4468509 16.1191634,55.2299867 C16.0651096,55.0109393 15.9832984,54.8246398 15.8773821,54.671816 C15.7721963,54.5153536 15.6334095,54.39455 15.4675957,54.3079499 C15.2988602,54.2235329 15.1060195,54.1813244 14.8824997,54.1813244 C14.5983519,54.1813244 14.315665,54.2839347 14.0256736,54.4913384 C13.7393345,54.6951034 13.4376557,54.9963846 13.1272115,55.3864491 L13.1272115,60.6086562 C13.1272115,60.666147 13.1089501,60.7170883 13.0731577,60.7622077 C13.0395567,60.8073271 12.9796592,60.842986 12.8920043,60.8735507 C12.8072713,60.9004768 12.69332,60.924492 12.5545332,60.9397744 C12.4120941,60.954329 12.2316712,60.9601509 12.013995,60.9601509 C11.7970493,60.9601509 11.615896,60.954329 11.4741873,60.9397744 C11.3354005,60.924492 11.2207187,60.9004768 11.1367162,60.8735507 C11.0490613,60.842986 10.9891639,60.8073271 10.9555628,60.7622077 C10.91904,60.7170883 10.901509,60.666147 10.901509,60.6086562 L10.901509,52.7484195 C10.901509,52.6916564 10.9161182,52.6399874 10.9460669,52.594868 C10.9738243,52.5504763 11.0278781,52.5140897 11.1031151,52.4842527 C11.1820045,52.4565989 11.2784248,52.4333114 11.3989502,52.4180291 C11.5194756,52.4027467 11.6736021,52.3969248 11.8540249,52.3969248 C12.0439438,52.3969248 12.1980702,52.4027467 12.3215174,52.4180291 C12.4456951,52.4333114 12.5421154,52.4565989 12.6115089,52.4842527 C12.6779804,52.5140897 12.7261906,52.5504763 12.7561393,52.594868 C12.7860881,52.6399874 12.8014277,52.6916564 12.8014277,52.7484195 L12.8014277,53.6559017 C13.2360496,53.1872421 13.679437,52.8386583 14.1315899,52.6043285 C14.5808209,52.3699987 15.0512353,52.2528338 15.539911,52.2528338 C16.0767969,52.2528338 16.5296802,52.339434 16.8971001,52.5170006 C17.2652504,52.6916564 17.5603551,52.9318081 17.7897186,53.2352724 C18.0161602,53.5358259 18.1790521,53.8902315 18.2783943,54.2963061 C18.3777365,54.701653 18.4295989,55.188506 18.4295989,55.7561372 L18.4295989,60.6086562 Z M9.14495469,50.0586962 C9.14495469,50.5022194 9.05719475,50.8058344 8.87739392,50.9753107 C8.69759308,51.1447871 8.36795821,51.2284435 7.88135435,51.2284435 C7.39261,51.2284435 7.05940766,51.1483929 6.89173624,50.9839648 C6.72049734,50.8209791 6.63559139,50.5260182 6.63559139,50.1026879 C6.63559139,49.6591648 6.72406482,49.352665 6.90029818,49.1795828 C7.07439106,49.0101065 7.40687991,48.9235654 7.89919173,48.9235654 C8.38294161,48.9235654 8.71257648,49.0072218 8.88595586,49.1738134 C9.06004874,49.3375203 9.14495469,49.6324813 9.14495469,50.0586962 L9.14495469,50.0586962 Z M8.89401836,60.6132537 C8.89401836,60.6699926 8.87548844,60.7202675 8.83916979,60.7647968 C8.80507473,60.809326 8.74429658,60.8445185 8.65535296,60.8746835 C8.56937411,60.9012574 8.4537474,60.9249584 8.31291999,60.9400409 C8.16838659,60.9544052 7.98531095,60.9601509 7.76443428,60.9601509 C7.5442988,60.9601509 7.36122316,60.9544052 7.21668976,60.9400409 C7.07586235,60.9249584 6.96023564,60.9012574 6.8742568,60.8746835 C6.78531317,60.8445185 6.72453502,60.809326 6.69043996,60.7647968 C6.65338012,60.7202675 6.63559139,60.6699926 6.63559139,60.6132537 L6.63559139,52.8737839 C6.63559139,52.817045 6.65338012,52.7667701 6.69043996,52.7222408 C6.72453502,52.6777116 6.78531317,52.638928 6.8742568,52.6094813 C6.96023564,52.5771617 7.07586235,52.5534606 7.21668976,52.5355053 C7.36122316,52.5175499 7.5442988,52.5089314 7.76443428,52.5089314 C7.98531095,52.5089314 8.16838659,52.5175499 8.31291999,52.5355053 C8.4537474,52.5534606 8.56937411,52.5771617 8.65535296,52.6094813 C8.74429658,52.638928 8.80507473,52.6777116 8.83916979,52.7222408 C8.87548844,52.7667701 8.89401836,52.817045 8.89401836,52.8737839 L8.89401836,60.6132537 Z" id="Fill-4" fill="#4A4A4A"></path>
        </g>
    </g>
</svg>