<svg width="19" height="19" viewBox="0 0 19 19" fill="none" xmlns="http://www.w3.org/2000/svg">
<path d="M13.7572 4.94594C12.5971 3.85967 11.0915 3.26421 9.49436 3.26562C6.61994 3.26815 4.13844 5.23903 3.45329 7.97295C3.40341 8.17197 3.2261 8.3125 3.02093 8.3125H0.894447C0.616201 8.3125 0.404826 8.0599 0.456297 7.78644C1.25923 3.52257 5.00283 0.296875 9.5 0.296875C11.9658 0.296875 14.2051 1.26677 15.8574 2.84573L17.1828 1.52037C17.7438 0.959314 18.7031 1.35668 18.7031 2.15015V7.125C18.7031 7.61688 18.3044 8.01562 17.8125 8.01562H12.8377C12.0442 8.01562 11.6468 7.05631 12.2079 6.49522L13.7572 4.94594ZM1.1875 10.9844H6.16235C6.95582 10.9844 7.35319 11.9437 6.79213 12.5048L5.24281 14.0541C6.40293 15.1404 7.90856 15.7359 9.50579 15.7344C12.3787 15.7318 14.8612 13.7623 15.5467 11.0271C15.5966 10.8281 15.7739 10.6876 15.9791 10.6876H18.1056C18.3838 10.6876 18.5952 10.9402 18.5437 11.2136C17.7408 15.4774 13.9972 18.7031 9.5 18.7031C7.03416 18.7031 4.79487 17.7332 3.14261 16.1543L1.81725 17.4796C1.25619 18.0407 0.296875 17.6433 0.296875 16.8498V11.875C0.296875 11.3831 0.695615 10.9844 1.1875 10.9844Z" fill="#50576A" fill-opacity="0.5"/>
</svg>
