<svg width="11" height="10" viewBox="0 0 11 10" fill="none" xmlns="http://www.w3.org/2000/svg">
<path d="M0.392857 8.125H10.6071C10.8241 8.125 11 8.30687 11 8.53125V9.54688C11 9.77125 10.8241 9.95312 10.6071 9.95312H0.392857C0.175877 9.95312 0 9.77125 0 9.54688V8.53125C0 8.30687 0.175877 8.125 0.392857 8.125ZM0.392857 4.0625H10.6071C10.8241 4.0625 11 4.24437 11 4.46875V5.48438C11 5.70875 10.8241 5.89062 10.6071 5.89062H0.392857C0.175877 5.89062 0 5.70875 0 5.48438V4.46875C0 4.24437 0.175877 4.0625 0.392857 4.0625ZM0.392857 0H10.6071C10.8241 0 11 0.181873 11 0.40625V1.42188C11 1.64625 10.8241 1.82812 10.6071 1.82812H0.392857C0.175877 1.82812 0 1.64625 0 1.42188V0.40625C0 0.181873 0.175877 0 0.392857 0Z" fill="#6A7485"/>
</svg>
