<svg width="16" height="14" viewBox="0 0 16 14" fill="none" xmlns="http://www.w3.org/2000/svg">
<path d="M0.25574 6.03377L6.0339 0.255478C6.19885 0.0905358 6.41868 0 6.65308 0C6.88775 0 7.10746 0.0906659 7.2724 0.255478L7.79701 0.780221C7.96182 0.944903 8.05262 1.16487 8.05262 1.3994C8.05262 1.63381 7.96182 1.86119 7.79701 2.02587L4.42611 5.40418H15.1356C15.6185 5.40418 16 5.7822 16 6.26518V7.00703C16 7.49002 15.6185 7.90615 15.1356 7.90615H4.38787L7.79688 11.3033C7.96169 11.4683 8.05249 11.6822 8.05249 11.9168C8.05249 12.1511 7.96169 12.3682 7.79688 12.533L7.27227 13.056C7.10733 13.221 6.88762 13.3108 6.65296 13.3108C6.41855 13.3108 6.19872 13.2198 6.03377 13.0549L0.25561 7.27669C0.0902777 7.11123 -0.000648499 6.89035 2.86102e-06 6.65555C-0.000516891 6.41998 0.0902777 6.19897 0.25574 6.03377Z" fill="#209698"/>
</svg>
